<svg width="49" height="36" viewBox="0 0 49 36" fill="none" xmlns="http://www.w3.org/2000/svg">
<g clip-path="url(#clip0_2875_6022)">
<path d="M24.1971 35.9958C34.1352 35.9958 42.1917 27.9379 42.1917 17.9979C42.1917 8.05796 34.1352 0 24.1971 0C14.259 0 6.20255 8.05796 6.20255 17.9979C6.20255 27.9379 14.259 35.9958 24.1971 35.9958Z" fill="#FFC800"/>
<path d="M31.9411 31.4068C25.8301 34.9338 19.2025 35.5658 14.9691 33.4532C20.3891 36.6833 27.3483 36.9626 33.1975 33.5858C39.0468 30.2056 42.2856 24.0386 42.1983 17.7285C41.9121 22.4532 38.0522 27.8799 31.9411 31.4068Z" fill="black"/>
<path d="M26.4793 1.32025C27.7183 3.46436 24.7238 7.51511 19.7889 10.3611C14.854 13.2071 9.85279 13.7798 8.61383 11.6322C8.56148 11.5309 8.51262 11.4192 8.47772 11.304C8.15664 10.3053 8.54054 9.01319 9.4654 7.65131C9.61547 7.43831 9.76903 7.22879 9.92608 7.02275C11.3221 5.20339 13.0915 3.62499 15.1995 2.40977C17.3075 1.19105 19.5586 0.450737 21.8306 0.150423C22.0958 0.112011 22.3541 0.0840754 22.6054 0.0666154C24.2457 -0.0556058 25.5544 0.258677 26.2594 1.03391C26.3432 1.12819 26.4165 1.22248 26.4793 1.32025Z" fill="black"/>
<path d="M34.1293 3.64125C36.2932 7.38819 31.9271 13.9567 24.3817 18.3148C16.8363 22.6728 8.96276 23.1687 6.80243 19.4218C6.44296 18.7967 6.251 18.1018 6.21261 17.3545C6.11838 19.8722 6.55115 22.4319 7.55976 24.8623C7.70984 25.2255 7.87387 25.5852 8.04837 25.9414C8.05535 25.9553 8.06582 25.9728 8.0728 25.9868C8.72544 27.1147 9.68868 28.0017 10.8893 28.6442C15.1227 30.9105 22.2807 30.1318 28.9746 26.2661C35.665 22.4004 39.9193 16.5932 40.0764 11.7952C40.1217 10.4402 39.8391 9.16563 39.1934 8.03771C38.9491 7.67107 38.6943 7.31139 38.4256 6.96915C36.8376 4.91583 34.8623 3.28157 32.667 2.11523C33.2778 2.51681 33.7734 3.02316 34.1293 3.64125C34.1293 3.64125 34.1329 3.64474 34.1329 3.64823L34.1293 3.64125Z" fill="black"/>
<path d="M24.2006 35.9958C34.1388 35.9958 42.1952 27.9379 42.1952 17.9979C42.1952 8.05796 34.1388 0 24.2006 0C14.2625 0 6.20605 8.05796 6.20605 17.9979C6.20605 27.9379 14.2625 35.9958 24.2006 35.9958Z" fill="url(#paint0_radial_2875_6022)"/>
</g>
<defs>
<radialGradient id="paint0_radial_2875_6022" cx="0" cy="0" r="1" gradientUnits="userSpaceOnUse" gradientTransform="translate(24.199 17.9994) scale(17.9942 18.0045)">
<stop offset="0.5" stop-color="white" stop-opacity="0"/>
<stop offset="1" stop-color="white" stop-opacity="0.35"/>
</radialGradient>
<clipPath id="clip0_2875_6022">
<rect width="36" height="36" fill="white" transform="translate(6.20001)"/>
</clipPath>
</defs>
</svg>
