<svg width="37" height="36" viewBox="0 0 37 36" fill="none" xmlns="http://www.w3.org/2000/svg">
<g clip-path="url(#clip0_2497_6044)">
<path d="M18.1971 35.9958C28.1352 35.9958 36.1917 27.9379 36.1917 17.9979C36.1917 8.05796 28.1352 0 18.1971 0C8.25901 0 0.202545 8.05796 0.202545 17.9979C0.202545 27.9379 8.25901 35.9958 18.1971 35.9958Z" fill="#FFC800"/>
<path d="M25.9411 31.4068C19.8301 34.9338 13.2025 35.5658 8.96915 33.4532C14.3891 36.6833 21.3483 36.9626 27.1975 33.5858C33.0468 30.2056 36.2856 24.0386 36.1983 17.7285C35.9121 22.4532 32.0522 27.8799 25.9411 31.4068Z" fill="black"/>
<path d="M20.4793 1.32025C21.7183 3.46436 18.7238 7.51511 13.7889 10.3611C8.85401 13.2071 3.85279 13.7798 2.61383 11.6322C2.56148 11.5309 2.51262 11.4192 2.47772 11.304C2.15664 10.3053 2.54054 9.01319 3.4654 7.65131C3.61547 7.43831 3.76903 7.22879 3.92608 7.02275C5.32209 5.20339 7.09153 3.62499 9.19953 2.40977C11.3075 1.19105 13.5586 0.450737 15.8306 0.150423C16.0958 0.112011 16.3541 0.0840754 16.6054 0.0666154C18.2457 -0.0556058 19.5544 0.258677 20.2594 1.03391C20.3432 1.12819 20.4165 1.22248 20.4793 1.32025Z" fill="black"/>
<path d="M28.1293 3.64125C30.2932 7.38819 25.9271 13.9567 18.3817 18.3148C10.8363 22.6728 2.96276 23.1687 0.802428 19.4218C0.442956 18.7967 0.251005 18.1018 0.212614 17.3545C0.118384 19.8722 0.551147 22.4319 1.55976 24.8623C1.70984 25.2255 1.87387 25.5852 2.04837 25.9414C2.05535 25.9553 2.06582 25.9728 2.0728 25.9868C2.72544 27.1147 3.68868 28.0017 4.88925 28.6442C9.12265 30.9105 16.2807 30.1318 22.9746 26.2661C29.665 22.4004 33.9193 16.5932 34.0764 11.7952C34.1217 10.4402 33.8391 9.16563 33.1934 8.03771C32.9491 7.67107 32.6943 7.31139 32.4256 6.96915C30.8376 4.91583 28.8623 3.28157 26.667 2.11523C27.2778 2.51681 27.7734 3.02316 28.1293 3.64125C28.1293 3.64125 28.1329 3.64474 28.1329 3.64823L28.1293 3.64125Z" fill="black"/>
<path d="M18.2006 35.9958C28.1388 35.9958 36.1952 27.9379 36.1952 17.9979C36.1952 8.05796 28.1388 0 18.2006 0C8.26252 0 0.206055 8.05796 0.206055 17.9979C0.206055 27.9379 8.26252 35.9958 18.2006 35.9958Z" fill="url(#paint0_radial_2497_6044)"/>
</g>
<defs>
<radialGradient id="paint0_radial_2497_6044" cx="0" cy="0" r="1" gradientUnits="userSpaceOnUse" gradientTransform="translate(18.199 17.9994) scale(17.9942 18.0045)">
<stop offset="0.5" stop-color="white" stop-opacity="0"/>
<stop offset="1" stop-color="white" stop-opacity="0.35"/>
</radialGradient>
<clipPath id="clip0_2497_6044">
<rect width="36" height="36" fill="white" transform="translate(0.200012)"/>
</clipPath>
</defs>
</svg>
