<svg width="46" height="32" viewBox="0 0 46 32" fill="none" xmlns="http://www.w3.org/2000/svg">
<path d="M20.8381 0.238281C18.5684 0.238281 16.5399 1.41492 16.5399 3.58836C16.5399 6.08116 20.1373 6.25332 20.1373 7.5058C20.1373 8.03316 19.5332 8.50516 18.5008 8.50516C17.0362 8.50516 15.9415 7.84564 15.9415 7.84564L15.473 10.0392C15.473 10.0392 16.7341 10.5964 18.4084 10.5964C20.89 10.5964 22.8429 9.36212 22.8429 7.15124C22.8429 4.517 19.2304 4.34996 19.2304 3.18772C19.2304 2.7746 19.7264 2.32212 20.7556 2.32212C21.9168 2.32212 22.864 2.8018 22.864 2.8018L23.3226 0.683401C23.3226 0.683401 22.2916 0.238281 20.8378 0.238281H20.8381ZM0.071077 0.398281L0.016037 0.717961C0.016037 0.717961 0.970917 0.892681 1.83108 1.24148C2.9386 1.64116 3.01732 1.87412 3.20388 2.59668L5.2362 10.4312H7.96068L12.1578 0.398281H9.43972L6.74276 7.21972L5.64228 1.43732C5.54148 0.775561 5.03012 0.397961 4.40452 0.397961H0.071397L0.071077 0.398281ZM13.2509 0.398281L11.1188 10.4312H13.7108L15.8352 0.398281H13.2509ZM27.7072 0.398281C27.0823 0.398281 26.7511 0.733001 26.5082 1.31764L22.7108 10.4312H25.4288L25.9546 8.9122H29.266L29.5856 10.4312H31.984L29.8919 0.398281H27.7072ZM28.0608 3.109L28.8666 6.8738H26.7082L28.0612 3.109H28.0608Z" fill="#1434CB"/>
<path d="M35.7773 16.3145H28.2001V29.9277H35.7773V16.3145Z" fill="#FF5A00"/>
<path d="M28.7045 23.1199C28.7045 20.3541 30.0047 17.8993 31.9999 16.3132C30.5316 15.1587 28.6793 14.4609 26.6589 14.4609C21.8726 14.4609 17.9999 18.3336 17.9999 23.1199C17.9999 27.9061 21.8726 31.7788 26.6589 31.7788C28.6793 31.7788 30.5316 31.081 31.9999 29.9265C30.0019 28.3629 28.7045 25.8857 28.7045 23.1199Z" fill="#EB001B"/>
<path d="M45.9999 23.1199C45.9999 27.9061 42.1272 31.7788 37.341 31.7788C35.3206 31.7788 33.4683 31.081 31.9999 29.9265C34.0204 28.3376 35.2954 25.8857 35.2954 23.1199C35.2954 20.3541 33.9951 17.8993 31.9999 16.3132C33.4655 15.1587 35.3178 14.4609 37.3382 14.4609C42.1272 14.4609 45.9999 18.3589 45.9999 23.1199Z" fill="#F79E1B"/>
</svg>
