<svg width="48" height="42" viewBox="0 0 36 42" fill="none" xmlns="http://www.w3.org/2000/svg"><g clip-path="url(#a)"><path d="M34.844 9.958 19.148.908a2.31 2.31 0 0 0-2.3 0L1.152 9.958A2.3 2.3 0 0 0 0 11.95v18.1c0 .818.441 1.58 1.152 1.993l15.696 9.05c.35.202.748.308 1.152.306.405 0 .802-.107 1.152-.306l15.696-9.05A2.3 2.3 0 0 0 36 30.052V11.95c0-.816-.441-1.579-1.152-1.992zm-16.49 9.92a.71.71 0 0 1-.712 0L2.383 11.08l15.26-8.794a.73.73 0 0 1 .71 0l15.26 8.796zm-1.506 1.372q.166.096.358.164v18.044l-15.26-8.792a.71.71 0 0 1-.357-.614V12.454z" fill="#000"/></g><defs><clipPath id="a"><path fill="#fff" d="M0 .602h36V41.4H0z"/></clipPath></defs></svg>