<svg width="36" height="37" viewBox="0 0 36 37" fill="none" xmlns="http://www.w3.org/2000/svg">
<g clip-path="url(#clip0_2311_25345)">
<path d="M36 18.3984C36 8.45731 27.9411 0.398438 18 0.398438C8.05887 0.398438 0 8.45731 0 18.3984C0 28.3396 8.05887 36.3984 18 36.3984C27.9411 36.3984 36 28.3396 36 18.3984Z" fill="#F65648"/>
<path d="M13.4443 15.884C13.5155 15.8212 13.5512 15.7897 13.5568 15.7591C13.5617 15.7323 13.5542 15.7048 13.5365 15.6842C13.5161 15.6606 13.4703 15.6516 13.3786 15.6337C12.3093 15.4257 11.2023 15.3036 10.2312 15.2934C10.1845 15.2929 10.1613 15.2927 10.1432 15.2839C10.1271 15.2763 10.114 15.2641 10.1049 15.2488C10.0946 15.2316 10.0924 15.2086 10.0879 15.1627L9.72792 11.4603C9.72342 11.4144 9.72121 11.3914 9.72808 11.3723C9.73414 11.3555 9.7451 11.3409 9.75942 11.3303C9.77578 11.3183 9.79836 11.314 9.84361 11.3052C15.2679 10.2557 20.6669 10.2019 26.1725 11.3073C26.2176 11.3163 26.2401 11.3208 26.2563 11.3329C26.2706 11.3435 26.2815 11.3581 26.2874 11.3749C26.2941 11.394 26.2918 11.4169 26.2873 11.4626L25.9137 15.1632C25.9091 15.209 25.9067 15.2318 25.8965 15.2491C25.8873 15.2643 25.8742 15.2763 25.8582 15.284C25.8402 15.2927 25.817 15.2929 25.7705 15.2934C24.7993 15.3035 23.6922 15.4256 22.6226 15.6337C22.531 15.6516 22.4851 15.6606 22.4647 15.6842C22.447 15.7048 22.4395 15.7323 22.4444 15.7591C22.45 15.7897 22.4857 15.8212 22.5569 15.884C25.1337 18.1556 26.9561 21.1485 26.997 25.3531C26.9975 25.4036 26.9978 25.4289 26.988 25.4484C26.9795 25.4653 26.9655 25.4794 26.9487 25.4881C26.9293 25.498 26.9041 25.498 26.8538 25.498H23.1418C23.0913 25.498 23.0661 25.498 23.047 25.4884C23.03 25.4798 23.0165 25.4665 23.0077 25.4497C22.9978 25.4307 22.9974 25.4049 22.9968 25.3531C22.9486 21.8436 21.1462 19.504 18.0791 17.5011C18.0508 17.4826 18.0366 17.4734 18.0213 17.4697C18.0078 17.4666 17.9934 17.4666 17.9799 17.4697C17.9646 17.4734 17.9504 17.4826 17.9221 17.5011C14.855 19.504 13.0526 21.8436 13.0045 25.3531C13.0038 25.4049 13.0034 25.4307 12.9934 25.4497C12.9847 25.4665 12.9712 25.4798 12.9543 25.4884C12.9351 25.498 12.9099 25.498 12.8594 25.498H9.1475C9.0971 25.498 9.0719 25.498 9.05251 25.4881C9.03565 25.4794 9.02166 25.4653 9.01315 25.4484C9.00342 25.4289 9.00366 25.4036 9.00415 25.3531C9.04506 21.1485 10.8676 18.1556 13.4443 15.884Z" fill="white"/>
</g>
<defs>
<clipPath id="clip0_2311_25345">
<rect width="36" height="36" fill="white" transform="translate(0 0.398438)"/>
</clipPath>
</defs>
</svg>
