<?xml version="1.0"?>
<svg width="48" height="37" xmlns="http://www.w3.org/2000/svg" xmlns:svg="http://www.w3.org/2000/svg">
 <g class="layer">
  <title>Layer 1</title>
  <g id="svg_2">
   <path d="m42,18.4c0,-9.94 -8.06,-18 -18,-18c-9.94,0 -18,8.06 -18,18c0,9.94 8.06,18 18,18c9.94,0 18,-8.06 18,-18z" fill="#F65648" id="svg_3"/>
   <path d="m19.44,15.88c0.08,-0.06 0.11,-0.09 0.12,-0.12c0,-0.03 -0.01,-0.06 -0.02,-0.08c-0.02,-0.02 -0.07,-0.03 -0.16,-0.05c-1.07,-0.2 -2.18,-0.33 -3.15,-0.34c-0.05,0 -0.07,0 -0.09,-0.01c-0.01,0 -0.03,-0.02 -0.04,-0.03c-0.01,-0.02 -0.01,-0.04 -0.01,-0.09l-0.36,-3.7c-0.01,-0.05 -0.01,-0.07 0,-0.09c0,-0.01 0.02,-0.03 0.03,-0.04c0.02,-0.01 0.04,-0.02 0.08,-0.02c5.43,-1.05 10.83,-1.11 16.33,0c0.05,0.01 0.07,0.01 0.09,0.02c0.01,0.01 0.02,0.03 0.03,0.04c0,0.02 0,0.05 0,0.09l-0.38,3.7c0,0.05 0,0.07 -0.01,0.09c-0.01,0.01 -0.03,0.03 -0.04,0.03c-0.02,0.01 -0.04,0.01 -0.09,0.01c-0.97,0.01 -2.08,0.14 -3.15,0.34c-0.09,0.02 -0.13,0.03 -0.16,0.05c-0.01,0.02 -0.02,0.05 -0.02,0.08c0.01,0.03 0.05,0.06 0.12,0.12c2.57,2.28 4.4,5.27 4.44,9.47c0,0.05 0,0.08 -0.01,0.1c-0.01,0.02 -0.02,0.03 -0.04,0.04c-0.02,0.01 -0.05,0.01 -0.1,0.01l-3.71,0c-0.05,0 -0.07,0 -0.09,-0.01c-0.02,-0.01 -0.03,-0.02 -0.04,-0.04c-0.01,-0.02 -0.01,-0.05 -0.01,-0.1c-0.05,-3.51 -1.85,-5.85 -4.92,-7.85c-0.03,-0.02 -0.04,-0.03 -0.06,-0.03c-0.01,0 -0.03,0 -0.04,0c-0.02,0 -0.03,0.01 -0.06,0.03c-3.06,2 -4.87,4.34 -4.92,7.85c0,0.05 0,0.08 -0.01,0.1c-0.01,0.02 -0.02,0.03 -0.04,0.04c-0.01,0.01 -0.04,0.01 -0.09,0.01l-3.71,0c-0.05,0 -0.08,0 -0.1,-0.01c-0.01,-0.01 -0.03,-0.02 -0.04,-0.04c-0.01,-0.02 -0.01,-0.05 -0.01,-0.1c0.05,-4.2 1.87,-7.19 4.44,-9.47z" fill="white" id="svg_4"/>
  </g>
 </g>
</svg>