<svg width="48" height="36" viewBox="0 0 48 36" fill="none" xmlns="http://www.w3.org/2000/svg">
<g clip-path="url(#clip0_2875_13146)">
<path d="M26.2 0.0996094V18.6329C26.2 19.4996 25.5333 20.0996 24.7333 20.0996H22.5333C22.4 20.0996 22.3333 20.2329 22.3333 20.2996V35.8329C22.8667 35.8329 23.4 35.9663 24 35.9663C33.9333 35.9663 42 27.8996 42 17.9663C42 8.83294 35.1333 1.16628 26.2 0.0996094ZM25.8 27.8329C24.5333 27.8329 23.6 26.7663 23.6 25.6329C23.6 24.3663 24.6667 23.4329 25.8 23.4329C27.0667 23.4329 28 24.4996 28 25.6329C28.1333 26.8329 27.0667 27.8329 25.8 27.8329ZM31.0667 27.8329C29.8 27.8329 28.8667 26.7663 28.8667 25.6329C28.8667 24.3663 29.9333 23.4329 31.0667 23.4329C32.3333 23.4329 33.2667 24.4996 33.2667 25.6329C33.2667 26.7663 32.4 27.8329 31.0667 27.8329ZM36.4 27.8329C35.1333 27.8329 34.2 26.7663 34.2 25.6329C34.2 24.3663 35.2667 23.4329 36.4 23.4329C37.6667 23.4329 38.6 24.4996 38.6 25.6329C38.6 26.7663 37.6667 27.8329 36.4 27.8329Z" fill="#00B956"/>
<path d="M24 0.0332031C14.0667 0.0332031 6 8.09987 6 18.0332C6 26.7665 12.0667 33.8999 20.2 35.5665V19.3665C20.2 18.6332 20.8667 18.0332 21.5333 17.8999H23.7333C23.8667 17.8999 23.9333 17.7665 23.9333 17.6999L24 0.0332031ZM20.5333 14.8332C19.2667 14.8332 18.3333 13.7665 18.3333 12.6332C18.3333 11.3665 19.4 10.4332 20.5333 10.4332C21.8 10.4332 22.7333 11.4999 22.7333 12.6332C22.7333 13.7665 21.7333 14.8332 20.5333 14.8332Z" fill="#00B956"/>
</g>
<defs>
<clipPath id="clip0_2875_13146">
<rect width="36" height="35.9333" fill="white" transform="translate(6 0.0332031)"/>
</clipPath>
</defs>
</svg>
