<svg width="36" height="36" viewBox="0 0 36 36" fill="none" xmlns="http://www.w3.org/2000/svg">
<g clip-path="url(#clip0_2497_13169)">
<path d="M20.2 0.0996094V18.6329C20.2 19.4996 19.5333 20.0996 18.7333 20.0996H16.5333C16.4 20.0996 16.3333 20.2329 16.3333 20.2996V35.8329C16.8667 35.8329 17.4 35.9663 18 35.9663C27.9333 35.9663 36 27.8996 36 17.9663C36 8.83294 29.1333 1.16628 20.2 0.0996094ZM19.8 27.8329C18.5333 27.8329 17.6 26.7663 17.6 25.6329C17.6 24.3663 18.6667 23.4329 19.8 23.4329C21.0667 23.4329 22 24.4996 22 25.6329C22.1333 26.8329 21.0667 27.8329 19.8 27.8329ZM25.0667 27.8329C23.8 27.8329 22.8667 26.7663 22.8667 25.6329C22.8667 24.3663 23.9333 23.4329 25.0667 23.4329C26.3333 23.4329 27.2667 24.4996 27.2667 25.6329C27.2667 26.7663 26.4 27.8329 25.0667 27.8329ZM30.4 27.8329C29.1333 27.8329 28.2 26.7663 28.2 25.6329C28.2 24.3663 29.2667 23.4329 30.4 23.4329C31.6667 23.4329 32.6 24.4996 32.6 25.6329C32.6 26.7663 31.6667 27.8329 30.4 27.8329Z" fill="#00B956"/>
<path d="M18 0.0332031C8.06667 0.0332031 0 8.09987 0 18.0332C0 26.7665 6.06667 33.8999 14.2 35.5665V19.3665C14.2 18.6332 14.8667 18.0332 15.5333 17.8999H17.7333C17.8667 17.8999 17.9333 17.7665 17.9333 17.6999L18 0.0332031ZM14.5333 14.8332C13.2667 14.8332 12.3333 13.7665 12.3333 12.6332C12.3333 11.3665 13.4 10.4332 14.5333 10.4332C15.8 10.4332 16.7333 11.4999 16.7333 12.6332C16.7333 13.7665 15.7333 14.8332 14.5333 14.8332Z" fill="#00B956"/>
</g>
<defs>
<clipPath id="clip0_2497_13169">
<rect width="36" height="35.9333" fill="white" transform="translate(0 0.0332031)"/>
</clipPath>
</defs>
</svg>
