<svg width="48" height="29" viewBox="0 0 36 29" fill="none" xmlns="http://www.w3.org/2000/svg"><g clip-path="url(#a)"><mask id="b" style="mask-type:luminance" maskUnits="userSpaceOnUse" x="0" y="0" width="36" height="29"><path d="M21.6 0h-7.2C7.612 0 4.217 0 2.11 2.11.59 3.627.166 5.812.047 9.45h35.906c-.119-3.638-.543-5.823-2.063-7.34C31.783 0 28.388 0 21.6 0m-7.2 28.8h7.2c6.788 0 10.183 0 12.29-2.11C36 24.583 36 21.188 36 14.4q.001-1.192-.004-2.25H.004Q-.001 13.208 0 14.4c0 6.788 0 10.183 2.11 12.29C4.217 28.8 7.612 28.8 14.4 28.8" fill="#fff"/><path fill-rule="evenodd" clip-rule="evenodd" d="M5.85 21.6a1.35 1.35 0 0 1 1.35-1.35h7.2a1.35 1.35 0 1 1 0 2.7H7.2a1.35 1.35 0 0 1-1.35-1.35m11.7 0a1.35 1.35 0 0 1 1.35-1.35h2.7a1.35 1.35 0 1 1 0 2.7h-2.7a1.35 1.35 0 0 1-1.35-1.35" fill="#000"/></mask><g mask="url(#b)"><path d="M-3.6-7.201h43.2v43.2H-3.6z" fill="#000"/><path d="M-3.6-7.201h43.2v43.2H-3.6z" fill="url(#c)"/></g></g><defs><linearGradient id="c" x1="39.906" y1="10.472" x2="-4.029" y2="11.233" gradientUnits="userSpaceOnUse"><stop offset=".056" stop-color="#E2C299"/><stop offset=".943" stop-color="#C5A67C"/></linearGradient><clipPath id="a"><path fill="#fff" d="M0-.002h36v28.8H0z"/></clipPath></defs></svg>