<svg width="51" height="36" viewBox="0 0 51 36" fill="none" xmlns="http://www.w3.org/2000/svg">
<g clip-path="url(#clip0_2497_14725)">
<path d="M43.1652 6.10547C41.6047 6.10547 40.2101 6.91441 40.2101 8.40865C40.2101 10.1224 42.6834 10.2408 42.6834 11.1019C42.6834 11.4644 42.268 11.7889 41.5583 11.7889C40.5513 11.7889 39.7987 11.3355 39.7987 11.3355L39.4766 12.8436C39.4766 12.8436 40.3437 13.2266 41.4947 13.2266C43.2008 13.2266 44.5435 12.3781 44.5435 10.8581C44.5435 9.04709 42.0599 8.93225 42.0599 8.13321C42.0599 7.84919 42.4009 7.53811 43.1084 7.53811C43.9068 7.53811 44.558 7.86789 44.558 7.86789L44.8732 6.41149C44.8732 6.41149 44.1644 6.10547 43.1649 6.10547H43.1652ZM28.8878 6.21547L28.85 6.43525C28.85 6.43525 29.5065 6.55537 30.0978 6.79517C30.8592 7.06995 30.9134 7.23011 31.0416 7.72687L32.4388 13.1131H34.3119L37.1974 6.21547H35.3288L33.4746 10.9052L32.718 6.92981C32.6487 6.47485 32.2972 6.21525 31.8671 6.21525H28.888L28.8878 6.21547ZM37.949 6.21547L36.4831 13.1131H38.2651L39.7257 6.21547H37.949ZM47.8877 6.21547C47.458 6.21547 47.2303 6.44559 47.0633 6.84753L44.4526 13.1131H46.3213L46.6827 12.0688H48.9593L49.1791 13.1131H50.828L49.3896 6.21547H47.8877ZM48.1308 8.07909L48.6847 10.6674H47.2008L48.131 8.07909H48.1308Z" fill="#1434CB"/>
</g>
<g clip-path="url(#clip1_2497_14725)">
<path d="M42.4359 19.2773H37.2265V28.6365H42.4359V19.2773Z" fill="#FF5A00"/>
<path d="M37.5734 23.955C37.5734 22.0535 38.4673 20.3658 39.839 19.2754C38.8295 18.4817 37.556 18.002 36.167 18.002C32.8765 18.002 30.214 20.6644 30.214 23.955C30.214 27.2455 32.8765 29.908 36.167 29.908C37.556 29.908 38.8295 29.4283 39.839 28.6345C38.4654 27.5595 37.5734 25.8565 37.5734 23.955Z" fill="#EB001B"/>
<path d="M49.464 23.9569C49.464 27.2475 46.8015 29.9099 43.511 29.9099C42.1219 29.9099 40.8485 29.4302 39.839 28.6365C41.228 27.5441 42.1046 25.8584 42.1046 23.9569C42.1046 22.0554 41.2107 20.3678 39.839 19.2773C40.8466 18.4836 42.12 18.0039 43.509 18.0039C46.8015 18.0039 49.464 20.6837 49.464 23.9569Z" fill="#F79E1B"/>
</g>
<g clip-path="url(#clip2_2497_14725)">
<path d="M28.1352 16.6304C27.3471 21.1234 23.6813 24.5197 18.8709 24.5197H15.8171C15.1942 24.5197 14.5667 25.0963 14.4672 25.734L13.1298 34.2227C13.0523 34.706 12.8259 34.8667 12.3362 34.8667H7.42399C6.92728 34.8667 6.80977 34.7006 6.8842 34.2109L7.44828 28.3405L1.55205 28.0358C1.05613 28.0358 0.876723 27.7655 0.947233 27.2704L4.97023 1.76131C5.0478 1.27793 5.34864 1.07031 5.83673 1.07031H16.0396C20.951 1.07031 24.0581 4.37646 24.4381 8.66348C27.3604 10.6378 28.7267 13.2647 28.136 16.6296L28.1352 16.6304Z" fill="#001C64"/>
<path d="M8.94314 18.8371L7.44911 28.3427L6.50427 34.3063C6.48672 34.4213 6.49414 34.5387 6.52601 34.6505C6.55789 34.7624 6.61347 34.8661 6.689 34.9545C6.76452 35.043 6.8582 35.1141 6.96368 35.1631C7.06915 35.2122 7.18395 35.2379 7.30025 35.2386H12.4882C12.725 35.2383 12.954 35.1536 13.1339 34.9996C13.3138 34.8457 13.433 34.6326 13.4699 34.3987L14.8354 25.7338C14.8725 25.5 14.9917 25.2871 15.1717 25.1334C15.3516 24.9796 15.5804 24.895 15.8171 24.8947H18.871C21.198 24.8917 23.4474 24.0574 25.2137 22.5424C26.98 21.0274 28.147 18.9312 28.5042 16.6317C29.0331 13.2574 27.3353 10.1855 24.4295 8.66797C24.423 9.02748 24.3916 9.38611 24.3355 9.74129C23.9769 12.0395 22.8095 14.1342 21.0436 15.6481C19.2776 17.162 17.0291 17.9956 14.703 17.9988H9.92402C9.68749 17.9989 9.45876 18.0834 9.27896 18.237C9.09915 18.3907 8.98007 18.6035 8.94314 18.8371Z" fill="#0070E0"/>
<path d="M7.44807 28.3414H1.40691C1.29036 28.3409 1.1753 28.3152 1.06957 28.2661C0.963841 28.2171 0.869931 28.1458 0.794238 28.0572C0.718546 27.9685 0.662849 27.8646 0.630945 27.7525C0.599041 27.6404 0.591679 27.5228 0.609361 27.4075L4.68015 1.59767C4.71675 1.36376 4.83568 1.15061 5.01552 0.996629C5.19535 0.842647 5.42427 0.757954 5.66103 0.757812H16.0339C20.9453 0.757812 24.5162 4.3319 24.4324 8.66201C23.1252 7.98761 21.6735 7.64155 20.2026 7.65371H11.5549C11.3181 7.65377 11.089 7.7383 10.909 7.8921C10.7289 8.0459 10.6096 8.25889 10.5725 8.49278L8.94289 18.8359L7.44807 28.3414Z" fill="#003087"/>
</g>
<defs>
<clipPath id="clip0_2497_14725">
<rect width="22" height="7.14296" fill="white" transform="translate(28.839 6.09375)"/>
</clipPath>
<clipPath id="clip1_2497_14725">
<rect width="19.25" height="11.906" fill="white" transform="translate(30.214 18)"/>
</clipPath>
<clipPath id="clip2_2497_14725">
<rect width="28" height="34.4795" fill="white" transform="translate(0.599976 0.759766)"/>
</clipPath>
</defs>
</svg>
