<svg width="33" height="40" viewBox="0 0 33 40" fill="none" xmlns="http://www.w3.org/2000/svg">
<g clip-path="url(#clip0_2497_12550)">
<path d="M0.400085 8.85547L5.18025 17.3997V22.6114L0.405677 31.1389L0.400085 8.85547Z" fill="#5B57A2"/>
<path d="M18.7541 14.291L23.2333 11.5457L32.4002 11.5371L18.7541 19.8968V14.291Z" fill="#D90751"/>
<path d="M18.7286 8.80527L18.7539 20.1175L13.9626 17.1735V0.263672L18.7286 8.80527Z" fill="#FAB718"/>
<path d="M32.4 11.5368L23.2328 11.5453L18.7286 8.80527L13.9626 0.263672L32.4 11.5368Z" fill="#ED6F26"/>
<path d="M18.7539 31.187V25.6986L13.9625 22.8105L13.9652 39.7372L18.7539 31.187Z" fill="#63B22F"/>
<path d="M23.222 28.4659L5.17992 17.3997L0.400085 8.85547L32.3807 28.4547L23.222 28.4659Z" fill="#1487C9"/>
<path d="M13.9655 39.7368L18.7536 31.1866L23.2216 28.4663L32.3803 28.4551L13.9655 39.7368Z" fill="#017F36"/>
<path d="M0.405823 31.1392L14.0019 22.8104L9.43097 20.0059L5.1804 22.6117L0.405823 31.1392Z" fill="#984995"/>
</g>
<defs>
<clipPath id="clip0_2497_12550">
<rect width="32" height="39.4729" fill="white" transform="translate(0.400024 0.263672)"/>
</clipPath>
</defs>
</svg>
