<svg width="49" height="26" viewBox="0 0 49 26" fill="none" xmlns="http://www.w3.org/2000/svg">
<g clip-path="url(#clip0_2497_12591)">
<path d="M36.1402 25.7422C36.0185 25.7422 35.8361 25.7422 35.7144 25.7422C34.9845 25.7422 34.3762 25.0731 34.3762 24.3432C34.3762 23.6133 35.0453 23.005 35.7752 23.005C38.4516 23.1267 40.9455 22.1534 42.8919 20.3286C44.8384 18.5038 45.9333 16.0708 46.0549 13.3944C46.2374 7.92001 41.9187 3.29719 36.4443 3.11471C31.0916 2.93223 26.5904 7.00761 26.1646 12.3604C26.1646 12.4212 26.1038 13.5161 26.1038 13.6377C25.7997 20.3286 20.2036 25.6206 13.5127 25.6206C6.51763 25.6206 0.799927 19.9637 0.799927 12.9686C0.799927 5.97356 6.51763 0.255859 13.5127 0.255859C14.2426 0.255859 14.9117 0.864125 14.9117 1.65487C14.9117 2.44562 14.3034 3.05388 13.5127 3.05388C8.03829 3.05388 3.53712 7.49423 3.53712 13.0294C3.53712 18.5647 7.97747 23.005 13.5127 23.005C18.8046 23.005 23.1841 18.8688 23.4274 13.5769C23.4274 13.4552 23.4883 12.3604 23.4883 12.2995C23.9749 5.36529 29.6926 0.195033 36.566 0.438339C43.561 0.681646 49.0354 6.58183 48.7921 13.5769C48.6705 16.9832 47.2715 20.0853 44.7776 22.3967C42.4053 24.5865 39.364 25.7422 36.1402 25.7422Z" fill="url(#paint0_linear_2497_12591)"/>
<path d="M36.1401 11.2648C36.9128 11.2648 37.5391 10.6385 37.5391 9.86581C37.5391 9.09316 36.9128 8.4668 36.1401 8.4668C35.3674 8.4668 34.7411 9.09316 34.7411 9.86581C34.7411 10.6385 35.3674 11.2648 36.1401 11.2648Z" fill="#020202"/>
<path d="M36.1401 17.8957C36.9128 17.8957 37.5391 17.2693 37.5391 16.4967C37.5391 15.724 36.9128 15.0977 36.1401 15.0977C35.3674 15.0977 34.7411 15.724 34.7411 16.4967C34.7411 17.2693 35.3674 17.8957 36.1401 17.8957Z" fill="#020202"/>
<path d="M32.8556 14.55C33.6282 14.55 34.2546 13.9236 34.2546 13.151C34.2546 12.3783 33.6282 11.752 32.8556 11.752C32.0829 11.752 31.4565 12.3783 31.4565 13.151C31.4565 13.9236 32.0829 14.55 32.8556 14.55Z" fill="#020202"/>
<path d="M39.4857 14.55C40.2583 14.55 40.8847 13.9236 40.8847 13.151C40.8847 12.3783 40.2583 11.752 39.4857 11.752C38.713 11.752 38.0867 12.3783 38.0867 13.151C38.0867 13.9236 38.713 14.55 39.4857 14.55Z" fill="#020202"/>
<path d="M16.3716 11.752C17.2231 11.752 17.8314 12.421 17.8314 13.2118C17.8314 14.0634 17.1623 14.6716 16.3716 14.6716H10.1672C9.31566 14.6716 8.7074 14.0025 8.7074 13.2118C8.7074 12.3602 9.37649 11.752 10.1672 11.752H16.3716Z" fill="#171717"/>
<path d="M11.7487 10.2313C11.7487 9.37975 12.4177 8.77148 13.2085 8.77148C14.0601 8.77148 14.6683 9.44058 14.6683 10.2313V16.3748C14.6683 17.2264 13.9992 17.8346 13.2085 17.8346C12.3569 17.8346 11.7487 17.1656 11.7487 16.3748V10.2313Z" fill="#171717"/>
</g>
<defs>
<linearGradient id="paint0_linear_2497_12591" x1="0.799927" y1="13.0139" x2="48.7956" y2="13.0139" gradientUnits="userSpaceOnUse">
<stop offset="0.0842105" stop-color="#FF4547"/>
<stop offset="1" stop-color="#FF6E3D"/>
</linearGradient>
<clipPath id="clip0_2497_12591">
<rect width="48" height="25.4863" fill="white" transform="translate(0.799927 0.255859)"/>
</clipPath>
</defs>
</svg>
