<svg width="56" height="36" viewBox="0 0 56 36" fill="none" xmlns="http://www.w3.org/2000/svg">
<g clip-path="url(#clip0_2497_14771)">
<path fill-rule="evenodd" clip-rule="evenodd" d="M47.7999 10.7784C47.7999 7.9339 46.4221 5.68945 43.7888 5.68945C41.1443 5.68945 39.5443 7.9339 39.5443 10.7561C39.5443 14.1006 41.4332 15.7895 44.1443 15.7895C45.4665 15.7895 46.4665 15.4895 47.2221 15.0673V12.845C46.4665 13.2228 45.5999 13.4561 44.4999 13.4561C43.4221 13.4561 42.4665 13.0784 42.3443 11.7672H47.7776C47.7776 11.6228 47.7999 11.045 47.7999 10.7784ZM42.311 9.7228C42.311 8.46724 43.0776 7.94501 43.7776 7.94501C44.4554 7.94501 45.1776 8.46724 45.1776 9.7228H42.311Z" fill="#635BFF"/>
<path fill-rule="evenodd" clip-rule="evenodd" d="M35.2554 5.68945C34.1665 5.68945 33.4665 6.20057 33.0777 6.55612L32.9332 5.86723H30.4888V18.8228L33.2665 18.2339L33.2777 15.0895C33.6777 15.3784 34.2665 15.7895 35.2443 15.7895C37.2332 15.7895 39.0443 14.1895 39.0443 10.6672C39.0332 7.44501 37.1999 5.68945 35.2554 5.68945ZM34.5888 13.345C33.9332 13.345 33.5443 13.1117 33.2777 12.8228L33.2665 8.70057C33.5554 8.37835 33.9554 8.15613 34.5888 8.15613C35.5999 8.15613 36.2999 9.28946 36.2999 10.745C36.2999 12.2339 35.611 13.345 34.5888 13.345Z" fill="#635BFF"/>
<path fill-rule="evenodd" clip-rule="evenodd" d="M26.6665 5.0333L29.4554 4.4333V2.17773L26.6665 2.76662V5.0333Z" fill="#635BFF"/>
<path d="M29.4554 5.87695H26.6665V15.5992H29.4554V5.87695Z" fill="#635BFF"/>
<path fill-rule="evenodd" clip-rule="evenodd" d="M23.6778 6.70075L23.5 5.87852H21.1V15.6008H23.8778V9.01186C24.5333 8.15631 25.6444 8.31186 25.9889 8.43408V5.87852C25.6333 5.74519 24.3333 5.50074 23.6778 6.70075Z" fill="#635BFF"/>
<path fill-rule="evenodd" clip-rule="evenodd" d="M18.1221 3.4668L15.411 4.04458L15.3999 12.9446C15.3999 14.589 16.6332 15.8002 18.2777 15.8002C19.1888 15.8002 19.8555 15.6335 20.2221 15.4335V13.1779C19.8666 13.3224 18.111 13.8335 18.111 12.189V8.24459H20.2221V5.87791H18.111L18.1221 3.4668Z" fill="#635BFF"/>
<path fill-rule="evenodd" clip-rule="evenodd" d="M10.611 8.70057C10.611 8.26724 10.9666 8.10057 11.5555 8.10057C12.3999 8.10057 13.4666 8.35613 14.311 8.81168V6.20057C13.3888 5.8339 12.4777 5.68945 11.5555 5.68945C9.29993 5.68945 7.79993 6.86723 7.79993 8.83391C7.79993 11.9006 12.0221 11.4117 12.0221 12.7339C12.0221 13.245 11.5777 13.4117 10.9555 13.4117C10.0333 13.4117 8.85548 13.0339 7.92215 12.5228V15.1673C8.95548 15.6117 9.99993 15.8006 10.9555 15.8006C13.2666 15.8006 14.8555 14.6561 14.8555 12.6672C14.8444 9.35613 10.611 9.94502 10.611 8.70057Z" fill="#635BFF"/>
</g>
<g clip-path="url(#clip1_2497_14771)">
<path d="M14.6514 25.0449C13.1427 25.0449 11.7943 25.8271 11.7943 27.2718C11.7943 28.9288 14.1856 29.0433 14.1856 29.8758C14.1856 30.2264 13.784 30.5401 13.0978 30.5401C12.1242 30.5401 11.3965 30.1017 11.3965 30.1017L11.0851 31.5599C11.0851 31.5599 11.9234 31.9302 13.0363 31.9302C14.6859 31.9302 15.9841 31.1098 15.9841 29.6402C15.9841 27.8891 13.5828 27.7781 13.5828 27.0055C13.5828 26.7309 13.9125 26.4301 14.5966 26.4301C15.3685 26.4301 15.9981 26.749 15.9981 26.749L16.3029 25.3408C16.3029 25.3408 15.6176 25.0449 14.6512 25.0449H14.6514ZM0.847011 25.1513L0.810425 25.3638C0.810425 25.3638 1.44516 25.4799 2.01693 25.7118C2.75313 25.9775 2.80546 26.1323 2.92947 26.6126L4.28041 31.8205H6.09145L8.88139 25.1513H7.07461L5.28186 29.6857L4.55034 25.842C4.48334 25.4021 4.14342 25.1511 3.72757 25.1511H0.847224L0.847011 25.1513ZM9.60802 25.1513L8.19071 31.8205H9.91369L11.3259 25.1513H9.60802ZM19.2175 25.1513C18.8021 25.1513 18.582 25.3738 18.4205 25.7624L15.8962 31.8205H17.703L18.0525 30.8107H20.2537L20.4662 31.8205H22.0604L20.6697 25.1513H19.2175ZM19.4526 26.9532L19.9882 29.4557H18.5534L19.4528 26.9532H19.4526Z" fill="#1434CB"/>
</g>
<g clip-path="url(#clip2_2497_14771)">
<path d="M35.3883 23.9648H30.3514V33.014H35.3883V23.9648Z" fill="#FF5A00"/>
<path d="M30.6869 28.4883C30.6869 26.6497 31.5512 25.018 32.8775 23.9637C31.9014 23.1962 30.6701 22.7324 29.3271 22.7324C26.1456 22.7324 23.5713 25.3067 23.5713 28.4883C23.5713 31.6698 26.1456 34.2441 29.3271 34.2441C30.6701 34.2441 31.9014 33.7803 32.8775 33.0128C31.5494 31.9734 30.6869 30.3268 30.6869 28.4883Z" fill="#EB001B"/>
<path d="M42.1838 28.4883C42.1838 31.6698 39.6095 34.2441 36.4279 34.2441C35.0849 34.2441 33.8536 33.7803 32.8776 33.0128C34.2206 31.9567 35.0681 30.3268 35.0681 28.4883C35.0681 26.6497 34.2038 25.018 32.8776 23.9637C33.8518 23.1962 35.083 22.7324 36.4261 22.7324C39.6095 22.7324 42.1838 25.3235 42.1838 28.4883Z" fill="#F79E1B"/>
</g>
<rect x="43.6836" y="22.7305" width="11.5117" height="11.5117" rx="5.75583" fill="#F7ADC1"/>
<path d="M45.9247 31.6569H47.3328V25.3145H45.9247V31.6569ZM50.9489 25.3145H49.5859C49.5633 26.7452 48.7297 27.9843 47.5356 28.5927L49.6422 31.6568H51.3545L49.4394 28.8743C50.3857 27.9393 50.9264 26.6776 50.9489 25.3145Z" fill="black"/>
<path d="M52.7298 30.0566C52.2904 30.0566 51.9299 30.4171 51.9299 30.8564C51.9299 31.2958 52.2904 31.6563 52.7298 31.6563C53.1691 31.6563 53.5296 31.2958 53.5296 30.8564C53.5296 30.4058 53.1691 30.0566 52.7298 30.0566Z" fill="black"/>
<defs>
<clipPath id="clip0_2497_14771">
<rect width="40" height="16.6444" fill="white" transform="translate(7.79993 2.17773)"/>
</clipPath>
<clipPath id="clip1_2497_14771">
<rect width="21.2713" height="6.90636" fill="white" transform="translate(0.799805 25.0332)"/>
</clipPath>
<clipPath id="clip2_2497_14771">
<rect width="18.6124" height="11.5117" fill="white" transform="translate(23.5712 22.7305)"/>
</clipPath>
</defs>
</svg>
