<svg width="49" height="20" viewBox="0 0 49 20" fill="none" xmlns="http://www.w3.org/2000/svg">
<path d="M1.07611 7.47712V10.0156L7.92402 9.26232V6.51482L1.07611 7.47712ZM3.2614 10.17V18.8685H5.76848V9.91376L3.2614 10.17ZM8.84887 6.38489V18.8685H11.4906V6.01346L8.84887 6.38489ZM11.9828 5.94423V8.81598L15.7975 8.39629V5.40826L11.9828 5.94423ZM11.9828 10.9534V13.8775L14.4869 13.7409V10.7379L11.9828 10.9534ZM11.9828 15.9852V18.8685H15.7975V15.8701L11.9828 15.9852ZM25.6628 4.01734V18.8685H29.126V3.53058L25.6628 4.01734ZM29.7727 3.43958V6.85569L34.8196 6.30078V2.73013L29.7727 3.43958ZM29.7727 9.42484V12.9042L33.0806 12.7236V9.14157L29.7727 9.42484ZM29.7727 15.4474V18.8685H34.8196V15.295L29.7727 15.4474ZM16.8069 5.26615V18.8685H19.8161V4.84307L16.8069 5.26615ZM20.3778 15.7319V18.8684H24.7459V15.6001L20.3778 15.7319ZM46.1345 2.56219C45.0399 1.5281 43.4351 1.10394 41.6798 1.35611V5.145C42.3906 5.10552 42.9666 5.36931 43.2232 5.90042C43.6285 6.73779 43.2104 7.99417 42.2241 9.1582C40.7019 10.9545 36.6541 14.6312 36.6541 14.6312L42.465 14.4401C46.0155 10.9714 47.2905 8.86588 47.5193 6.23805C47.6395 4.8478 47.1349 3.50827 46.1345 2.56219ZM47.724 18.8685V14.904L35.9379 15.2591M35.9379 15.2591L35.9391 18.8684H47.724M41.0022 1.44116C37.5783 2.17035 35.8969 4.68934 36.091 8.79962L39.7417 8.47566C39.5754 6.15354 40.2856 5.60269 41.004 5.29982L41.0022 1.44116Z" fill="#141414"/>
</svg>
