<?xml version="1.0"?>
<svg width="48" height="41" xmlns="http://www.w3.org/2000/svg" xmlns:svg="http://www.w3.org/2000/svg">
 <g class="layer">
  <title>Layer 1</title>
  <g id="svg_8">
   <rect fill="#C9EA44" height="40" id="svg_1" rx="4" width="40" x="4" y="0.4"/>
   <path d="m37.47,22.2l-1.23,-0.23c-0.03,0.29 -0.1,0.54 -0.22,0.69c-0.13,0.14 -0.35,0.22 -0.57,0.22c-0.18,0 -0.37,-0.07 -0.5,-0.19c-0.14,-0.13 -0.21,-0.32 -0.21,-0.58l0,-1.87l2.3,0l0,-1.52l-2.3,0l0,-1.38l-1.67,0l0,4.75c0,0.67 0.2,1.21 0.59,1.62c0.4,0.41 0.99,0.61 1.77,0.61c0.66,0 1.23,-0.18 1.63,-0.55c0.16,-0.15 0.3,-0.32 0.41,-0.51c0.17,-0.31 0.28,-0.65 0.32,-1l-0.32,-0.06z" fill="black" id="svg_2"/>
   <path d="m21.28,19.4c-0.27,-0.48 -0.67,-0.88 -1.16,-1.16c-0.48,-0.28 -1.04,-0.42 -1.68,-0.42c-0.63,0 -1.19,0.14 -1.69,0.42c-0.48,0.28 -0.88,0.68 -1.15,1.16c-0.28,0.49 -0.42,1.05 -0.42,1.67c-0.01,0.63 0.13,1.18 0.41,1.68c0.28,0.48 0.68,0.88 1.16,1.15c0.49,0.28 1.06,0.42 1.69,0.42c0.64,0 1.2,-0.14 1.68,-0.42c0.49,-0.27 0.89,-0.67 1.16,-1.15c0.28,-0.5 0.42,-1.05 0.42,-1.68c0,-0.62 -0.14,-1.18 -0.42,-1.67zm-1.43,2.61c-0.14,0.27 -0.34,0.49 -0.58,0.65c-0.25,0.14 -0.54,0.22 -0.83,0.22c-0.29,0 -0.58,-0.08 -0.83,-0.22c-0.25,-0.16 -0.45,-0.38 -0.58,-0.65c-0.14,-0.28 -0.21,-0.6 -0.21,-0.98c0,-0.37 0.07,-0.7 0.21,-0.98c0.13,-0.26 0.33,-0.49 0.58,-0.64c0.25,-0.15 0.54,-0.23 0.83,-0.23c0.29,0 0.58,0.08 0.83,0.23c0.25,0.15 0.45,0.38 0.58,0.64c0.14,0.28 0.21,0.61 0.21,0.98c0,0.38 -0.07,0.7 -0.21,0.98z" fill="black" id="svg_3"/>
   <path d="m30.65,21.82c-0.09,0.33 -0.25,0.59 -0.48,0.78c-0.24,0.19 -0.57,0.29 -0.98,0.29c-0.27,0 -0.54,-0.06 -0.79,-0.16c-0.24,-0.11 -0.45,-0.28 -0.6,-0.5c-0.15,-0.23 -0.24,-0.51 -0.25,-0.84l4.25,0c0.02,-0.12 0.03,-0.25 0.04,-0.37c0.01,-0.13 0.02,-0.26 0.02,-0.4c0,-0.57 -0.12,-1.07 -0.37,-1.48c-0.23,-0.42 -0.58,-0.76 -1,-0.98c-0.43,-0.22 -0.93,-0.34 -1.51,-0.34c-0.62,0 -1.17,0.15 -1.63,0.44c-0.46,0.28 -0.84,0.68 -1.09,1.15c-0.26,0.49 -0.39,1.03 -0.39,1.62c0,0.67 0.14,1.25 0.43,1.75c0.27,0.49 0.68,0.88 1.17,1.15c0.5,0.26 1.07,0.39 1.71,0.39c0.75,0 1.37,-0.17 1.85,-0.52c0.5,-0.35 0.84,-0.83 1.04,-1.42l-1.42,-0.56zm-2.58,-2.37c0.26,-0.18 0.58,-0.28 0.9,-0.27c0.22,-0.01 0.45,0.03 0.65,0.12c0.18,0.07 0.34,0.19 0.45,0.34c0.12,0.15 0.18,0.34 0.19,0.53c-0.01,0.02 -0.01,0.05 -0.02,0.07l-2.67,0c0.09,-0.35 0.24,-0.61 0.5,-0.79l0,0z" fill="black" id="svg_4"/>
   <path d="m22.1,24.19l1.96,-7.72l1.78,0l-1.97,7.72l-1.77,0z" fill="black" id="svg_5"/>
   <path d="m9.78,17.96l1.69,4.64l1.79,-4.64l1.78,0l-2.54,6.23l-2.04,0l-2.46,-6.23l1.78,0z" fill="black" id="svg_6"/>
   <path d="m39.28,24.32c-0.13,0.01 -0.26,-0.03 -0.37,-0.09c-0.11,-0.07 -0.2,-0.16 -0.26,-0.27c-0.06,-0.11 -0.1,-0.23 -0.1,-0.36c0,-0.12 0.04,-0.25 0.1,-0.36c0.06,-0.11 0.15,-0.2 0.26,-0.26c0.11,-0.07 0.24,-0.1 0.37,-0.1c0.13,0 0.25,0.03 0.37,0.1c0.1,0.06 0.19,0.15 0.26,0.26c0.06,0.11 0.09,0.24 0.09,0.36c0,0.13 -0.03,0.25 -0.09,0.37c-0.07,0.1 -0.15,0.19 -0.26,0.26c-0.11,0.06 -0.24,0.1 -0.37,0.09zm0,-0.17c0.09,0.01 0.19,-0.02 0.28,-0.07c0.08,-0.05 0.15,-0.12 0.2,-0.2c0.04,-0.09 0.07,-0.18 0.07,-0.28c0,-0.09 -0.03,-0.19 -0.07,-0.27c-0.05,-0.09 -0.12,-0.15 -0.2,-0.2c-0.09,-0.05 -0.18,-0.08 -0.28,-0.08c-0.1,0 -0.2,0.03 -0.28,0.07c-0.08,0.05 -0.15,0.12 -0.2,0.2c-0.07,0.13 -0.09,0.28 -0.06,0.42c0.04,0.14 0.13,0.26 0.26,0.34c0.08,0.05 0.18,0.08 0.28,0.07l0,0zm0,-0.2c-0.06,0 -0.12,-0.02 -0.17,-0.05c-0.06,-0.03 -0.1,-0.07 -0.13,-0.13c-0.03,-0.05 -0.05,-0.11 -0.05,-0.18c0,-0.06 0.02,-0.12 0.05,-0.17c0.03,-0.05 0.07,-0.1 0.12,-0.12c0.06,-0.03 0.11,-0.05 0.17,-0.05c0.08,0 0.15,0.02 0.21,0.06c0.06,0.05 0.1,0.11 0.11,0.19l-0.14,0.04c-0.01,-0.04 -0.03,-0.08 -0.06,-0.11c-0.03,-0.03 -0.07,-0.04 -0.11,-0.04c-0.05,0 -0.1,0.02 -0.13,0.05c-0.04,0.03 -0.06,0.07 -0.07,0.11c-0.01,0.04 -0.01,0.08 0.01,0.12c0.01,0.04 0.04,0.08 0.08,0.1c0.03,0.03 0.07,0.04 0.11,0.04c0.03,0 0.06,0 0.08,-0.01c0.02,-0.01 0.05,-0.02 0.07,-0.04c0.03,-0.04 0.05,-0.08 0.05,-0.13l0.14,0.05c-0.01,0.08 -0.06,0.15 -0.12,0.2c-0.06,0.05 -0.14,0.08 -0.22,0.07l0,0z" fill="black" id="svg_7"/>
  </g>
 </g>
</svg>