<svg width="40" height="41" viewBox="0 0 40 41" fill="none" xmlns="http://www.w3.org/2000/svg">
<rect y="0.398438" width="40" height="40" rx="4" fill="#C9EA44"/>
<path d="M33.4682 22.1973L32.2398 21.9687C32.2137 22.2577 32.139 22.5076 32.0166 22.655C31.8941 22.8025 31.672 22.8787 31.453 22.8787C31.2654 22.8838 31.0835 22.8147 30.9468 22.6862C30.8105 22.5594 30.7425 22.3687 30.7427 22.1141V20.2371H33.0448V18.7203H30.7427V17.3418H29.0716V22.0868C29.0716 22.762 29.2688 23.3034 29.6633 23.711C30.0577 24.1185 30.6452 24.3227 31.4257 24.3234C32.0916 24.3234 32.6629 24.1394 33.0621 23.771C33.2227 23.6226 33.3597 23.4504 33.4682 23.2606C33.6395 22.9508 33.7494 22.611 33.792 22.2597L33.4682 22.1973Z" fill="black"/>
<path d="M17.281 19.4014C17.0075 18.9173 16.6071 18.517 16.123 18.2434C15.6408 17.9611 15.0793 17.8207 14.4384 17.8223C13.8071 17.8223 13.2457 17.9627 12.7542 18.2434C12.2701 18.517 11.8698 18.9173 11.5963 19.4014C11.3157 19.8926 11.1754 20.4496 11.1751 21.0725C11.1749 21.6954 11.3147 22.2529 11.5947 22.7452C11.8687 23.2281 12.269 23.6273 12.7527 23.9C13.2439 24.1824 13.8053 24.3235 14.4369 24.3235C15.0785 24.3235 15.64 24.1831 16.1215 23.9024C16.606 23.6293 17.0069 23.2292 17.281 22.7452C17.5618 22.2539 17.7021 21.6969 17.7021 21.0741C17.7021 20.4512 17.5618 19.8936 17.281 19.4014ZM15.8451 22.0137C15.713 22.2758 15.5137 22.4981 15.2676 22.6582C15.016 22.8049 14.7299 22.8822 14.4386 22.8822C14.1473 22.8822 13.8613 22.8049 13.6096 22.6582C13.3636 22.4981 13.1643 22.2758 13.0322 22.0137C12.8915 21.7335 12.8213 21.4067 12.8216 21.0332C12.8219 20.6598 12.8921 20.333 13.0322 20.0527C13.1591 19.7872 13.3595 19.5635 13.6096 19.4083C13.8613 19.2616 14.1473 19.1843 14.4386 19.1843C14.7299 19.1843 15.016 19.2616 15.2676 19.4083C15.5177 19.5635 15.7182 19.7872 15.8451 20.0527C15.9857 20.3325 16.0559 20.6593 16.0557 21.0332C16.0554 21.4072 15.9852 21.734 15.8451 22.0137Z" fill="black"/>
<path d="M26.6525 21.8212C26.564 22.1467 26.4016 22.4059 26.1655 22.5989C25.9294 22.7919 25.6049 22.8884 25.1919 22.8884C24.9209 22.8885 24.6526 22.8348 24.4024 22.7305C24.1603 22.6194 23.9516 22.4468 23.7968 22.2301C23.6477 22.0017 23.5645 21.7209 23.547 21.3878H27.7974C27.8151 21.2651 27.8279 21.1423 27.8359 21.0193C27.8532 20.8886 27.8619 20.7567 27.862 20.6248C27.862 20.0458 27.7392 19.5501 27.4936 19.1377C27.2625 18.7221 26.9144 18.3835 26.4927 18.1637C26.0639 17.9361 25.5596 17.8223 24.9798 17.8223C24.357 17.8223 23.813 17.967 23.348 18.2565C22.8886 18.54 22.512 18.9393 22.2559 19.4145C22.0015 19.8969 21.8743 20.4359 21.8743 21.0313C21.8743 21.6986 22.0147 22.282 22.2955 22.7817C22.5696 23.2665 22.9757 23.6635 23.4665 23.9266C23.9678 24.1912 24.5385 24.3235 25.1788 24.3235C25.9331 24.3235 26.5515 24.1481 27.034 23.7973C27.5255 23.4461 27.8719 22.9724 28.0734 22.376L26.6525 21.8212ZM24.0705 19.4537C24.3323 19.2694 24.6455 19.1724 24.9656 19.1766C25.1913 19.171 25.4157 19.2139 25.6235 19.3024C25.8035 19.3683 25.9594 19.4871 26.0708 19.6431C26.1892 19.7944 26.2541 19.9807 26.2552 20.1728C26.2543 20.1945 26.2497 20.2158 26.2417 20.236H23.5693C23.6571 19.8922 23.8076 19.6316 24.0705 19.4549V19.4537Z" fill="black"/>
<path d="M18.098 24.1915L20.0636 16.4707H21.8398L19.8745 24.1915H18.098Z" fill="black"/>
<path d="M5.77665 17.9551L7.47394 22.5985L9.26169 17.9551H11.0383L8.50064 24.1915H6.46034L4.00006 17.9551H5.77665Z" fill="black"/>
<path d="M35.2763 24.3249C35.1467 24.3267 35.0191 24.2929 34.9074 24.2271C34.7993 24.1627 34.7097 24.0713 34.6475 23.9619C34.5853 23.8525 34.5526 23.7287 34.5526 23.6028C34.5526 23.477 34.5853 23.3533 34.6475 23.2438C34.7097 23.1344 34.7993 23.043 34.9074 22.9786C35.0201 22.9146 35.1474 22.8809 35.277 22.8809C35.4066 22.8809 35.5339 22.9146 35.6466 22.9786C35.754 23.0419 35.8431 23.132 35.9053 23.24C35.9673 23.3508 35.9999 23.4757 35.9999 23.6026C35.9999 23.7297 35.9673 23.8545 35.9053 23.9653C35.8436 24.0733 35.755 24.1635 35.6481 24.2271C35.5356 24.2935 35.4069 24.3274 35.2763 24.3249ZM35.2763 24.1547C35.3749 24.1565 35.472 24.1308 35.5569 24.0804C35.6395 24.0311 35.7078 23.9611 35.7551 23.8773C35.8023 23.7935 35.8269 23.6988 35.8263 23.6026C35.8279 23.5056 35.8034 23.4099 35.7555 23.3255C35.708 23.2434 35.6401 23.175 35.5584 23.1268C35.4732 23.0775 35.3765 23.0513 35.278 23.051C35.1795 23.0507 35.0827 23.0762 34.9971 23.1249C34.9162 23.1736 34.8489 23.2419 34.8016 23.3236C34.728 23.4498 34.7074 23.6 34.744 23.7414C34.7806 23.8829 34.8716 24.0041 34.9971 24.0788C35.0815 24.1291 35.1781 24.155 35.2763 24.1539V24.1547ZM35.2816 23.9534C35.2194 23.952 35.1587 23.9346 35.1053 23.9027C35.0519 23.8708 35.0078 23.8255 34.9771 23.7714C34.9466 23.7173 34.9306 23.6561 34.9308 23.5939C34.931 23.5317 34.9473 23.4707 34.9783 23.4167C35.0082 23.3656 35.0517 23.3236 35.1038 23.2955C35.1557 23.2666 35.2142 23.2516 35.2735 23.252C35.3477 23.2495 35.4209 23.2704 35.4826 23.3116C35.5427 23.3567 35.5829 23.4234 35.5946 23.4976L35.4491 23.5407C35.4433 23.4985 35.4227 23.4598 35.391 23.4314C35.3589 23.4037 35.3178 23.3889 35.2755 23.3898C35.2273 23.3904 35.1812 23.4091 35.1461 23.4421C35.1146 23.4705 35.0923 23.5077 35.0822 23.5489C35.0721 23.5901 35.0746 23.6334 35.0895 23.6731C35.1043 23.7128 35.1307 23.7472 35.1653 23.7717C35.2 23.7962 35.2412 23.8098 35.2835 23.8106C35.3096 23.8125 35.3357 23.8088 35.3602 23.7997C35.3846 23.7906 35.4068 23.7763 35.4252 23.7578C35.4571 23.7219 35.4774 23.6772 35.4833 23.6296L35.6235 23.6812C35.6055 23.7603 35.5619 23.8314 35.4995 23.8833C35.4372 23.9311 35.3601 23.9556 35.2816 23.9526V23.9534Z" fill="black"/>
</svg>
